<svg width="24" height="24" viewBox="0 0 24 24" fill="none" xmlns="http://www.w3.org/2000/svg">
<circle cx="12" cy="12" r="12" fill="#579AFF"/>
<path d="M11.25 21L11.25 3L12.75 3L12.75 21H11.25Z" fill="white"/>
<path d="M11.25 21L11.25 3L12.75 3L12.75 21H11.25Z" fill="white"/>
<path d="M11.25 21L11.25 3L12.75 3L12.75 21H11.25Z" fill="white"/>
<path d="M3 11.25L21 11.25L21 12.75L3 12.75L3 11.25Z" fill="white"/>
<path d="M3 11.25L21 11.25L21 12.75L3 12.75L3 11.25Z" fill="white"/>
<path d="M3 11.25L21 11.25L21 12.75L3 12.75L3 11.25Z" fill="white"/>
</svg>
